<?xml version="1.0" encoding="utf-8"?>
<!-- Generator: Adobe Illustrator 24.1.2, SVG Export Plug-In . SVG Version: 6.00 Build 0)  -->
<svg version="1.1" id="Layer_1" xmlns="http://www.w3.org/2000/svg" xmlns:xlink="http://www.w3.org/1999/xlink" x="0px" y="0px"
	 viewBox="0 0 1920 1080" style="enable-background:new 0 0 1920 1080;" xml:space="preserve">
<style type="text/css">
	.st0{fill:#FEFEFE;}
	.st1{fill:#D8D8D8;}
	.st2{fill:#F0F0F0;}
	.st3{fill:#F2F2F2;}
	.st4{fill:#EBEBEB;}
</style>
<g>
	<path class="st0" d="M959.55,789.91c-81.79,0-163.59-0.02-245.38,0.09c-3.28,0-4.17-0.46-4.17-4.02
		c0.12-163.94,0.11-327.88,0.02-491.81c0-3.28,0.46-4.17,4.02-4.17c163.92,0.12,327.85,0.11,491.77,0.02c3.28,0,4.17,0.46,4.17,4.02
		c-0.12,163.94-0.13,327.88,0.03,491.81c0,4.11-1.45,4.12-4.56,4.12C1123.48,789.9,1041.51,789.91,959.55,789.91z"/>
	<path d="M933.03,498.86c68.11,0,136.21-0.24,204.32,0.12c26.98,0.14,49.76,10.13,61.43,35.77c16.25,35.67,12.96,70.28-12.42,100.91
		c-23.84,28.78-55.16,45.6-92.1,50.72c-7.84,1.08-11.52,3.74-15.01,10.26c-12.25,22.91-27.72,43.43-47.69,60.31
		c-10.69,9.04-22.93,13.59-37.05,13.55c-45.46-0.13-90.93-0.52-136.38,0.17c-20.13,0.31-35.88-7.02-49.88-20.76
		c-27.16-26.64-45.03-59.01-59.05-93.8c-17.16-42.59-27.54-87.01-35.08-132.17c-0.66-3.94-1.38-7.86-1.91-11.82
		c-1.21-9.01,2.47-13.24,11.49-13.24C793.48,498.85,863.25,498.86,933.03,498.86z"/>
	<path class="st1" d="M923.61,305.18c7.62,3.22,15.19,6.35,22.69,9.61c3.05,1.32,5.9,3.12,8.97,4.37
		c15.95,6.5,24.56,19.7,29.54,34.94c4.22,12.88-0.28,24.9-9.32,34.86c-6.93,7.63-14.94,14.14-22.63,20.97
		c-5.93,5.27-11.05,11.31-14.76,18.54c-1.94,3.78-5.07,6.9-6.79,10.94c-3.57,8.35-2.95,16.76-0.97,25.28
		c0.33,1.44,0.6,2.93,0.59,4.4c-0.01,1.69-1.05,2.02-2.29,1c-7.15-5.89-14.41-11.45-19.21-19.85c-8.7-15.26-4.11-30.33,6.44-41.5
		c10.6-11.22,20.92-22.59,30.42-34.82c12.05-15.51,5.2-36.97-4.82-47.81c-5.52-5.98-11.17-11.85-16.75-17.77
		C924.07,307.63,923.14,307.04,923.61,305.18z"/>
	<path class="st1" d="M850.03,335.09c8.69,3.71,17.7,6.96,25.46,12.35c12.46,8.65,23.83,27.57,16.33,44.63
		c-4.26,9.71-12.2,16.4-20.38,22.79c-10.06,7.87-18.39,17.35-24.46,28.57c-3.87,7.14-3.79,14.97-2.13,22.83
		c0.27,1.3,1.57,3.08-0.05,4.14c-1.75,1.15-2.56-0.89-3.62-1.77c-4.61-3.8-8.9-7.92-12.1-13.04c-6.23-9.96-6.41-19.9-0.14-29.94
		c4.46-7.15,10.71-12.68,16.59-18.52c6.26-6.22,12.12-12.71,17.04-20.08c7.4-11.11,5.02-21.91-1.24-32.23
		c-4.56-7.51-10.89-13.71-17.29-19.74c-0.78-2.1-0.21-2.84,1.97-1.97l0.01,0.01C847.16,334.18,848.71,334.4,850.03,335.09z"/>
	<path class="st1" d="M1021.95,335.1c6.91,3.29,13.9,6.41,20.7,9.9c13.31,6.84,20.52,18.58,22.88,32.66
		c1.55,9.26-2.71,17.68-9.32,24.77c-8.08,8.67-18.33,14.99-25.96,24.01c-5.96,7.04-11.95,14.28-14.3,23.6
		c-1,5.18-0.51,10.3,0.23,15.48c0.21,1.47,2.4,5-2.23,4.51c-4.35-4.28-9.39-7.86-12.72-13.14c-8.85-14.03-8.68-22.54,3.47-36.84
		c8.03-9.45,17.11-18.02,25.35-27.36c12.78-14.48,8.39-32.97-1.37-43.25c-2.61-2.75-4.27-6.39-7.71-8.37
		c-1.46-2.27-3.66-3.87-5.34-5.93c-1.12-1.37-1.02-1.45,1.32-2.06l0,0C1018.52,334.01,1020.37,334.24,1021.95,335.1z"/>
	<path class="st2" d="M1013.96,470.03c3.09-0.68,1.86-2.88,1.61-4.68c-0.7-5.13-1.55-10.25,0.39-15.31
		c-0.35,6.26,0.4,12.44,1.39,18.59c0.17,1.09,1.13,2.32-0.31,3.03C1015.49,472.41,1014.63,471.27,1013.96,470.03z"/>
	<path class="st3" d="M1016.96,333.08c-2.44,0.33-1.06,1.29-0.37,2.17c1.5,1.91,4.1,3,4.39,5.82c-2.17-2-4.38-3.96-6.5-6
		c-0.93-0.89-2.24-2.13-0.95-3.32C1015.09,330.3,1016.15,331.74,1016.96,333.08z"/>
	<path class="st4" d="M846.01,333.12c-1.29,0.02-1.93,0.7-1.97,1.97c-0.94-0.58-2.35-1.25-1.31-2.46
		C843.63,331.58,845.07,331.87,846.01,333.12z"/>
	<path class="st3" d="M1021.95,335.1c-1.96,0.05-3.7-0.43-4.99-2.02C1018.92,333.03,1020.67,333.49,1021.95,335.1z"/>
	<path class="st4" d="M850.03,335.09c-1.71,0.1-3.22-0.2-4.01-1.97C847.63,333.23,849.01,333.79,850.03,335.09z"/>
	<path class="st0" d="M998.95,708.79c-19.49,0.05-38.97,0.14-58.46,0.15c-45.31,0.02-90.62-0.04-135.93,0.09
		c-3.54,0.01-5.62-0.95-7.63-3.97c-21.54-32.48-35.09-68.39-45.74-105.56c-7.2-25.11-12.47-50.66-16.97-76.37
		c-0.5-2.83-0.48-4.37,3.4-4.37c107.78,0.12,215.56,0.1,323.34,0.11c0.66,0,1.32,0.14,1.98,0.21c1.47,1.58,0.94,3.42,0.64,5.21
		c-5.23,30.84-11.93,61.34-21.17,91.26c-7.58,24.52-16.77,48.36-28.75,71.09c-3.18,6.03-6.61,11.92-10.09,17.78
		C1002.42,706.3,1001.12,708,998.95,708.79z"/>
	<path class="st1" d="M998.95,708.79c12.74-18.97,22.59-39.45,30.76-60.69c14.01-36.41,23.75-74.01,30.31-112.45
		c0.94-5.53,1.94-11.05,2.91-16.58c16.14-0.07,32.29-0.11,48.43-0.25c2.39-0.02,2.65,0.8,2.28,2.98
		c-8.86,52.11-21.48,103.09-44.54,151.03c-5.63,11.71-12.11,22.88-19.29,33.69c-1.1,1.65-2.27,2.5-4.41,2.48
		C1029.91,708.85,1014.43,708.84,998.95,708.79z"/>
	<path class="st1" d="M1095.06,665.77c3.86-10.21,7.85-20.32,11.47-30.55c1.03-2.93,3.01-1.88,4.77-2.08
		c21.73-2.48,38.92-12.38,49.26-31.97c8.68-16.45,3.87-38.73-9.42-48.54c-5.52-4.08-11.82-5.95-18.57-6.45
		c-2.04-0.15-2.79-0.43-2.26-2.92c1.46-6.79,2.6-13.66,3.53-20.54c0.44-3.23,1.86-3.99,4.9-3.93c26.26,0.5,44.11,17.02,48.28,43.45
		c5.39,34.12-9.07,59-35.1,78.83c-15.53,11.84-32.88,19.95-51.93,24.36C1098.39,665.81,1096.81,666.45,1095.06,665.77z"/>
	<path class="st0" d="M964,750.01c-2.15,0.14-4.3,0.39-6.45,0.39c-34.1,0.03-68.2-0.16-102.29,0.12
		c-10.95,0.09-20.15-3.24-28.05-10.62c-3.58-3.34-7.47-6.38-11.03-10.96c1.73,0,2.66,0,3.59,0c53.89,0,107.78,0,161.68,0.01
		c0.83,0,1.65,0.11,2.48,0.17c0.32,0.89,0.04,1.7-0.55,2.3C977.08,737.79,971.34,744.74,964,750.01z"/>
	<path class="st1" d="M964,750.01c6.64-6.96,13.28-13.93,19.92-20.89c15.56,0,31.13,0,47.82,0c-9.46,9.36-17.53,19.41-30.99,20.79
		C988.56,751.15,976.25,750.72,964,750.01z"/>
	<path class="st0" d="M1113.71,612.79c4.22-15.07,8.18-29.56,11.28-44.27c0.33-1.55,1.35-2.1,2.77-2.41
		c6.87-1.5,14.37,3.2,16.06,10.11c2.08,8.51,0.47,16.09-5.55,22.61C1131.72,605.95,1123.66,610.34,1113.71,612.79z"/>
</g>
</svg>
